<svg width="172" height="32" viewBox="0 0 172 32" fill="none" xmlns="http://www.w3.org/2000/svg">
<path d="M14.0344 19.1969C14.0344 20.7433 13.6127 21.9304 12.7692 22.7582C11.9414 23.5861 10.7777 24 9.27818 24H7.02893C5.18579 24 3.87372 23.6798 3.09273 23.0394C2.32736 22.399 1.94467 21.29 1.94467 19.7124V7.31801H8.99703C10.5902 7.31801 11.7852 7.71632 12.5818 8.51293C13.394 9.30954 13.8001 10.4342 13.8001 11.8868C13.8001 12.7303 13.5814 13.4488 13.1441 14.0424C12.7224 14.6359 12.2538 15.0576 11.7383 15.3076C13.2691 16.0261 14.0344 17.3225 14.0344 19.1969ZM8.7393 13.8315C9.94203 13.8315 10.5434 13.2301 10.5434 12.0274C10.5434 10.8247 9.94203 10.2233 8.7393 10.2233H5.20141V13.8315H8.7393ZM10.7777 19.0329C10.7777 18.2831 10.6449 17.7208 10.3794 17.3459C10.1138 16.9555 9.63744 16.7602 8.95017 16.7602H5.20141V19.3843C5.20141 20.0248 5.3576 20.4699 5.67 20.7198C5.99802 20.9698 6.52909 21.0947 7.26322 21.0947H8.95017C10.1685 21.0947 10.7777 20.4074 10.7777 19.0329ZM46.355 24H42.9577L42.0205 21.1181H36.4208L35.5071 24H32.1097L37.4517 8.7238C37.686 8.19272 37.9438 7.82566 38.2249 7.6226C38.5217 7.41954 38.8809 7.31801 39.3027 7.31801C39.7244 7.31801 40.0602 7.41173 40.3102 7.59917C40.5757 7.78661 40.81 8.16149 41.0131 8.7238L46.355 24ZM41.2708 18.3769L39.3027 11.7697L37.2409 18.3769H41.2708ZM61.6475 7.31801V22.3131C61.6475 22.8285 61.4913 23.2737 61.1789 23.6486C60.8665 24.0078 60.4995 24.1874 60.0777 24.1874C59 24.1874 58.1174 23.5626 57.4302 22.3131L51.6665 13.2926V24H48.4097V7.31801H51.5493L58.3908 18.2363V7.31801H61.6475ZM63.9956 16.151V14.0892C63.9956 11.9181 64.5658 10.2233 65.706 9.00496C66.8462 7.78661 68.4239 7.17744 70.4388 7.17744C72.4538 7.17744 74.0704 7.78661 75.2888 9.00496C76.1479 9.86405 76.5774 11.1527 76.5774 12.8709H73.5315C73.5315 11.0121 72.5397 10.0827 70.556 10.0827C69.9624 10.0827 69.4548 10.1999 69.033 10.4342C68.6269 10.6528 68.3223 10.9106 68.1193 11.2074C67.9162 11.5041 67.76 11.9415 67.6507 12.5194C67.5413 13.0974 67.4789 13.5816 67.4632 13.9721C67.4476 14.3626 67.4398 14.8858 67.4398 15.5419C67.4398 16.1979 67.4398 16.6431 67.4398 16.8774C67.4554 17.096 67.4789 17.4631 67.5101 17.9786C67.557 18.4784 67.6194 18.8376 67.6975 19.0563C67.7912 19.275 67.9162 19.5562 68.0724 19.8998C68.2442 20.2434 68.4551 20.4855 68.705 20.6261C69.3454 21.0322 70.0717 21.2353 70.884 21.2353C72.2429 21.2353 73.2035 20.6574 73.7658 19.5015V18.3769H71.7509V15.659H76.554V20.6964C76.0698 21.8367 75.3044 22.6957 74.2579 23.2737C73.2113 23.8516 72.0242 24.1406 70.6965 24.1406C68.3379 24.1406 66.6276 23.4845 65.5654 22.1725C64.5189 20.8448 63.9956 18.8376 63.9956 16.151ZM82.9203 20.8604C83.1702 21.0947 83.2952 21.6024 83.2952 22.3833C83.2952 23.1643 83.1702 23.6798 82.9203 23.9297C82.686 24.1796 82.1783 24.3046 81.3973 24.3046C80.6164 24.3046 80.1009 24.1796 79.851 23.9297C79.6011 23.6798 79.4761 23.1643 79.4761 22.3833C79.4761 21.6024 79.6011 21.0947 79.851 20.8604C80.1009 20.6105 80.6164 20.4855 81.3973 20.4855C82.1783 20.4855 82.686 20.6105 82.9203 20.8604ZM88.1667 5.51392C88.9008 5.51392 89.3773 5.63107 89.5959 5.86537C89.8146 6.08405 89.9239 6.56045 89.9239 7.29458C89.9239 8.0131 89.8068 8.4895 89.5725 8.7238C89.3538 8.94248 88.8774 9.05182 88.1433 9.05182C87.4248 9.05182 86.9484 8.93467 86.7141 8.70037C86.4954 8.46607 86.3861 7.98967 86.3861 7.27115C86.3861 6.55264 86.4954 6.08405 86.7141 5.86537C86.9484 5.63107 87.4326 5.51392 88.1667 5.51392ZM89.6662 24H86.6204V11.1136H89.6662V24ZM103.452 24H100.406V15.4481C100.406 14.6828 100.25 14.1595 99.9376 13.8783C99.6252 13.5972 99.1879 13.4566 98.6255 13.4566L95.8843 14.6047V24H92.8384V10.6216H95.1111L95.814 12.2148L99.5627 10.481C100.609 10.481 101.515 10.8715 102.281 11.6525C103.062 12.4179 103.452 13.5425 103.452 15.0264V24Z" fill="#016A70"/>
<mask id="mask0_63032_6488" style="mask-type:alpha" maskUnits="userSpaceOnUse" x="11" y="27" width="152" height="5">
<rect width="151.148" height="4.16529" transform="matrix(-1 0 0 1 162.612 27.0742)" fill="#C4C4C4"/>
</mask>
<g mask="url(#mask0_63032_6488)">
<path d="M137.843 26.5577L137.391 26.5093L138.27 26.4399L137.849 26.3891C137.426 26.3895 136.879 26.4657 136.582 26.4252C136.545 26.386 137.005 26.3735 137.122 26.3423C137.226 26.3103 137.311 26.2785 137.376 26.2473C137.146 26.2476 136.893 26.2552 136.632 26.2695C136.282 26.2929 135.938 26.3042 135.639 26.3023C135.027 26.3086 134.436 26.3023 133.77 26.3037L133.992 26.2094L133.134 26.2315C133.044 26.2387 132.935 26.2271 132.846 26.236C132.103 26.3112 131.789 26.2702 131.432 26.2363C131.359 26.2275 131.271 26.2209 131.17 26.2167C130.179 26.2347 129.285 26.3401 128.392 26.3942C128.224 26.408 128.063 26.4258 127.92 26.4461C127.61 26.4858 127.265 26.5181 126.916 26.5403C126.567 26.5624 126.226 26.5736 125.925 26.5728C125.257 26.5719 124.503 26.5981 123.736 26.6489C123.507 26.6656 123.279 26.6767 123.065 26.6813C122.851 26.6859 122.656 26.6841 122.493 26.6759L121.974 26.7297C121.749 26.7078 121.464 26.6958 121.135 26.6945C120.807 26.6931 120.443 26.7023 120.064 26.7215C119.661 26.7424 119.251 26.7565 118.833 26.7786C117.969 26.8209 117.128 26.8467 116.336 26.8553C115.157 26.8809 114.004 26.9007 112.815 26.9325C112.071 26.9479 111.345 26.9564 110.644 26.9579C109.803 26.9639 108.894 26.993 107.96 27.0438V27.0438C108.004 27.0915 108.414 27.0774 108.689 27.0758C109.576 27.0679 110.483 27.0474 111.395 27.0319C111.806 27.0259 112.206 27.0236 112.592 27.0251C113.237 27.0231 113.918 27.0104 114.621 26.9872C115.733 26.9616 116.809 26.9494 117.838 26.9505C117.919 26.9524 117.993 26.9557 118.059 26.9605C118.073 26.9646 118.076 26.9698 118.067 26.9755C118.058 26.9813 118.039 26.9874 118.01 26.9934C117.981 26.9993 117.944 27.0049 117.903 27.0095C117.861 27.0141 117.816 27.0176 117.773 27.0197C117.364 27.052 116.925 27.0867 116.539 27.0916C116.524 27.0919 116.508 27.0928 116.492 27.094C116.477 27.0953 116.462 27.0969 116.448 27.0988C115.585 27.167 114.875 27.1554 114.203 27.1665C113.086 27.1965 112.01 27.2105 110.99 27.2084C110.836 27.2085 110.67 27.2124 110.497 27.2199C109.429 27.2504 108.43 27.2538 107.548 27.23C107.185 27.224 106.847 27.2104 106.456 27.2102C106.216 27.2093 106.007 27.2006 105.841 27.1848C105.676 27.169 105.557 27.1463 105.493 27.1181C105.328 27.133 105.161 27.1462 104.993 27.1576C104.893 27.1642 104.797 27.1659 104.724 27.1625C104.652 27.1591 104.608 27.1507 104.602 27.1392C104.572 27.1068 104.801 27.0906 104.999 27.0767C104.88 27.0698 104.745 27.0657 104.598 27.0646C103.771 27.0572 102.884 27.0659 101.956 27.0906C101.236 27.1201 100.661 27.0961 99.9028 27.1377C99.812 27.1449 99.7372 27.1343 99.6535 27.1318C99.4354 27.1185 99.1638 27.1155 98.8621 27.1231C98.5604 27.1307 98.2377 27.1486 97.9221 27.1754C97.5291 27.1023 96.68 27.1858 96.053 27.1933C95.86 27.2305 96.0815 27.224 96.091 27.2342C96.1005 27.2444 96.091 27.2342 96.1667 27.2282C96.7928 27.2809 97.6504 27.2924 98.6194 27.2611C98.7986 27.2612 98.9694 27.2636 99.13 27.2682C99.3733 27.2748 99.6477 27.2741 99.941 27.2663C100.262 27.2605 100.556 27.2633 100.81 27.2744C100.956 27.2742 101.08 27.2798 101.17 27.2906C101.259 27.3014 101.312 27.3171 101.323 27.3362C101.225 27.351 101.117 27.3645 101.002 27.3762C100.404 27.4224 99.8067 27.4416 99.3289 27.4298C98.4973 27.4096 97.5077 27.4294 96.6235 27.4225C96.0257 27.4197 95.3896 27.4276 94.7273 27.4462C94.7273 27.4462 94.7447 27.4649 94.7463 27.4666C94.6679 27.4747 94.5856 27.4812 94.5039 27.4858C94.5039 27.4858 94.5039 27.4858 94.496 27.4773C94.5323 27.4691 94.5816 27.4614 94.638 27.4551L94.8349 27.4395C94.7011 27.4355 94.576 27.4234 94.4366 27.4308C94.1427 27.4445 93.8619 27.4502 93.611 27.4478C93.36 27.4453 93.1442 27.4346 92.9764 27.4164C92.6791 27.393 92.3092 27.3824 91.8908 27.3852C91.5701 27.3826 91.2611 27.3771 90.9652 27.3687C90.9652 27.3687 90.9462 27.3483 90.8061 27.3374C90.9388 27.3241 91.0772 27.3131 91.215 27.3051C91.8142 27.2852 92.415 27.267 93.0038 27.2533C93.2207 27.2519 93.4246 27.2541 93.6116 27.2601C94.1297 27.2672 94.7117 27.2572 95.3238 27.2308C95.3238 27.2308 95.445 27.2213 95.5056 27.2165C95.3338 27.1716 94.7416 27.2165 94.502 27.1861C94.3562 27.1867 94.0996 27.1905 94.1085 27.1825C94.1284 27.1718 94.1308 27.1619 94.1154 27.1534C94.1001 27.1449 94.0673 27.1382 94.0195 27.1336C93.9717 27.1289 93.9101 27.1266 93.839 27.1267C93.768 27.1269 93.6892 27.1294 93.6085 27.1342C92.9344 27.1603 92.2994 27.1676 91.7426 27.1556C91.5314 27.1558 91.2948 27.1635 91.0852 27.1655C90.957 27.1678 90.8399 27.1665 90.7403 27.1617C90.2341 27.1259 89.5528 27.1233 88.7989 27.1542C88.4346 27.1653 88.0941 27.1668 87.7951 27.1586C87.5824 27.1571 87.4922 27.1825 87.3408 27.1945L86.6977 27.2197L87.5236 27.2514C87.3471 27.3238 87.2067 27.3477 86.9183 27.3522C86.4975 27.359 86.0878 27.3621 85.6914 27.3614C85.3982 27.3608 85.1561 27.3452 84.7592 27.373C84.6891 27.3775 84.6216 27.3789 84.568 27.3771C84.1032 27.3525 83.5434 27.3468 82.927 27.3605C82.6079 27.3145 82.0642 27.3593 81.5613 27.3954C81.399 27.3607 81.6931 27.3447 81.8685 27.3235C81.4478 27.3257 81.024 27.3245 80.5898 27.3295C80.4592 27.3277 80.3099 27.3309 80.1537 27.3388C79.9974 27.3467 79.8385 27.3591 79.6893 27.3751C79.6166 27.3855 79.5289 27.3932 79.4445 27.3969C79.36 27.4005 79.2853 27.3996 79.2358 27.3945C79.0105 27.3794 78.6495 27.3933 78.4633 27.3678C78.3971 27.3619 78.3024 27.3611 78.1963 27.3655C78.0901 27.3699 77.9794 27.3791 77.8839 27.3917V27.3917C77.9884 27.3956 78.0815 27.4017 78.161 27.41C78.4461 27.4368 78.3414 27.4817 77.9793 27.5468C77.4232 27.5433 76.8552 27.5443 76.3398 27.532C76.0526 27.521 75.7006 27.5244 75.3234 27.5419C74.9463 27.5595 74.5589 27.5904 74.2049 27.6312C74.0768 27.647 73.9308 27.6578 73.7959 27.6617C73.6609 27.6656 73.547 27.6622 73.4767 27.6522C73.4329 27.6407 73.4193 27.6261 73.4371 27.6097L73.8006 27.5809C73.8006 27.5809 73.7863 27.5656 73.7832 27.5622L73.2606 27.5596C72.9842 27.5595 72.6957 27.5641 72.4344 27.5628C72.0506 27.5542 71.6125 27.559 71.1469 27.5768C70.7176 27.595 70.2956 27.6088 69.8848 27.618C69.4872 27.6275 69.199 27.5973 68.8206 27.5924C68.5345 27.5888 68.2198 27.5927 67.8884 27.604C67.3161 27.624 66.7908 27.624 66.3604 27.6041C65.8586 27.7114 65.6147 27.7288 65.1489 27.6998L64.9299 27.6915L64.87 27.7146L64.7027 27.7095C64.3896 27.705 64.0766 27.7005 63.7499 27.6989C63.2958 27.7088 62.8054 27.7356 62.3266 27.7766C62.2357 27.7838 62.1121 27.8082 62.0323 27.8273C61.9525 27.8464 61.7784 27.9041 61.6507 27.9416C61.7899 27.969 61.9443 27.9952 62.0549 28.0266C62.0659 28.032 62.0648 28.0384 62.0517 28.0454C62.0385 28.0523 62.0136 28.0596 61.979 28.0666C61.9444 28.0736 61.901 28.0801 61.8524 28.0857C61.8038 28.0913 61.7513 28.0957 61.699 28.0986C61.5973 28.105 61.4968 28.1092 61.4018 28.1112C60.9339 28.1145 60.4857 28.112 60.0619 28.1037C59.9071 28.092 59.6952 28.0909 59.4597 28.1006C59.2243 28.1102 58.9788 28.1301 58.7622 28.1571C58.2075 28.1409 57.5631 28.1457 56.8732 28.1711C56.1436 28.1556 55.2622 28.1869 54.5805 28.153C54.5964 28.1701 54.526 28.1994 54.4279 28.2163C54.2728 28.2419 54.097 28.2657 53.9081 28.2866L52.4666 28.3274C52.4127 28.3484 52.3454 28.3696 52.2654 28.3908C52.2107 28.4076 52.1153 28.424 51.9995 28.4366C51.8837 28.4491 51.7566 28.4569 51.6452 28.4581C51.3583 28.4644 51.1178 28.4505 50.7758 28.4848C51.3025 28.5173 52.0129 28.513 52.7803 28.4726C53.5013 28.442 54.1949 28.4266 54.8352 28.4272C55.0463 28.427 55.3244 28.4288 55.3904 28.4473C55.5366 28.4998 55.919 28.4915 56.3652 28.4818C56.7157 28.4712 57.0359 28.4724 57.2994 28.4853C57.5628 28.4981 57.7621 28.5223 57.8808 28.5558C57.9108 28.5882 57.8389 28.6158 57.5313 28.6346L56.2521 28.7101C56.0636 28.7004 55.8847 28.6889 55.7162 28.6757C55.4323 28.6581 55.0819 28.6533 54.692 28.6616C54.3022 28.6699 53.8835 28.6911 53.4685 28.7235C53.2565 28.7403 53.0445 28.7571 52.8908 28.7491C52.7559 28.74 52.6316 28.729 52.519 28.7163C52.4962 28.7078 52.4871 28.6981 52.4921 28.6874C52.4105 28.6923 52.3288 28.6988 52.2497 28.7065C51.6182 28.7967 51.129 28.7951 50.6847 28.7717C50.5644 28.7648 50.4729 28.7537 50.351 28.7451C50.2292 28.7364 50.1863 28.7252 50.0755 28.7285C49.1926 28.758 48.9384 28.6593 48.1943 28.6633C48.158 28.6594 48.1355 28.6536 48.1288 28.6465C48.1222 28.6393 48.1316 28.6311 48.1563 28.6224C48.2088 28.6145 48.2697 28.6078 48.3332 28.6028C48.3967 28.5978 48.4608 28.5946 48.5198 28.5936C48.8622 28.581 49.1647 28.5849 49.3753 28.6046C49.5246 28.6127 49.6825 28.6192 49.8484 28.6239L50.5935 28.4809C49.8716 28.494 49.1889 28.494 48.5612 28.4807C48.4242 28.4732 48.1923 28.4861 47.9995 28.4885L46.5813 28.5019C46.2898 28.503 46.0413 28.4806 45.6347 28.5328C45.6347 28.5328 45.3662 28.5412 45.2945 28.5341C45.2229 28.527 44.9053 28.4826 44.7159 28.4537C44.496 28.4619 44.1915 28.4842 44.0545 28.4767C43.8152 28.4584 43.6081 28.4349 43.4368 28.4067L42.5801 28.447C42.5811 28.4828 42.6124 28.5165 42.6734 28.5475C42.7402 28.5774 42.7379 28.6133 42.6668 28.6523C42.5956 28.6913 42.4576 28.7323 42.264 28.7718L41.4181 28.9813C41.2801 28.9953 41.133 29.0047 40.9967 29.0083C40.8604 29.0119 40.7416 29.0094 40.6564 29.0012C40.2925 28.977 39.8847 28.958 39.5208 28.9338C39.0514 28.9709 39.172 29.0308 38.8307 29.0834L37.7252 29.1708C37.5565 29.2517 37.3847 29.3293 37.8976 29.3564C37.9995 29.3611 37.9308 29.3922 38.0239 29.4049C37.6252 29.4657 37.1868 29.4839 36.7827 29.5213C36.6233 29.5482 36.4901 29.5767 36.3894 29.6054C36.2788 29.6486 36.0546 29.6927 35.7652 29.7283C35.4757 29.7638 35.1444 29.7879 34.8426 29.7953C34.3363 29.818 33.818 29.8522 33.3107 29.8963C33.1375 29.9116 32.9594 29.9227 32.7885 29.929C32.6177 29.9352 32.458 29.9364 32.3202 29.9325C31.8295 29.9256 31.4141 29.9017 31.101 29.8625C30.7915 29.8292 30.3743 29.8132 29.8873 29.8158C29.0543 29.8817 28.8863 29.9809 28.3822 30.0682L29.2529 30.078C29.2846 30.1121 29.2269 30.155 29.5838 30.1542C29.9407 30.1535 29.7597 30.1861 29.6439 30.219C29.6031 30.2355 29.5235 30.2526 29.4186 30.2672C29.3137 30.2818 29.1899 30.2931 29.0682 30.2992L28.327 30.3413C28.0642 30.3574 27.8098 30.3642 27.5919 30.3611C27.3739 30.358 27.2008 30.3451 27.0915 30.3238C26.9661 30.3036 26.7929 30.2899 26.5827 30.2836C26.3148 30.2671 26.0945 30.2425 25.93 30.2109L24.8836 30.257C24.8391 30.2252 24.6953 30.2029 24.4766 30.1938C24.2579 30.1848 23.9777 30.1896 23.6834 30.2074L22.9782 30.2357C22.194 30.2666 22.022 30.2565 21.7924 30.1668L22.7328 30.0065C22.596 29.9643 22.4641 29.9272 22.3321 29.8901C22.5664 29.8373 22.8789 29.7874 23.238 29.7454C23.5731 29.7002 23.9178 29.6565 24.2706 29.6144C24.6533 29.5714 25.0574 29.5339 25.5326 29.4854C25.6155 29.4697 25.736 29.4419 25.89 29.4151C26.044 29.3891 26.2048 29.3636 26.3716 29.3387C26.34 29.3046 26.3115 29.2739 26.3724 29.2344C26.0797 29.247 25.7774 29.2691 25.4927 29.2986C25.2079 29.3281 24.9497 29.3642 24.7412 29.4035C24.7062 29.4105 24.6633 29.4171 24.6153 29.4227C24.5673 29.4284 24.5153 29.4331 24.463 29.4365C23.949 29.4607 23.7033 29.5112 23.4519 29.5731C23.2827 29.6047 23.0645 29.6328 22.8276 29.6535C22.3733 29.6894 21.9284 29.7355 21.4939 29.7754C21.361 29.7886 21.2228 29.7995 21.0851 29.8077C20.6309 29.8335 20.1739 29.8696 19.7372 29.9142C19.5946 29.9255 19.4579 29.9405 19.3383 29.9579C19.2187 29.9753 19.1198 29.9946 19.0498 30.0142C19.1579 30.0357 19.2163 30.0628 19.2213 30.0939C19.2403 30.1143 18.9213 30.156 18.7706 30.1862C18.6198 30.2164 18.9155 30.2022 19.0158 30.2052C19.4277 30.2111 19.5041 30.2233 19.2574 30.2903C19.1751 30.3114 19.1204 30.3325 19.0968 30.3523C19.0732 30.3721 19.0812 30.3901 19.1204 30.4054C19.1789 30.4684 19.357 30.5201 19.4793 30.5818C19.2894 30.6224 18.9721 30.6657 18.9375 30.716C18.9208 30.7271 18.8857 30.7389 18.8347 30.7506C18.7836 30.7622 18.7179 30.7733 18.6423 30.7832C18.4429 30.8045 18.2616 30.8299 18.1125 30.8575C17.9634 30.8852 17.8504 30.9143 17.7823 30.9426C17.7601 30.9543 17.7063 30.9667 17.6317 30.9773C17.5572 30.988 17.4674 30.996 17.3804 30.9999C17.2765 31.0047 17.1834 31.0041 17.1204 30.9982C17.0575 30.9922 17.0294 30.9815 17.0421 30.9682C17.0396 30.9431 17.0533 30.9169 17.0832 30.89C17.0658 30.8712 17.0484 30.8525 17.1172 30.8215C16.8068 30.8328 16.4809 30.8555 16.1749 30.8871C15.8689 30.9187 15.5945 30.958 15.3816 31.0007C15.1463 31.0449 14.9293 31.0913 14.6684 31.143C14.7222 31.2009 14.7222 31.2009 14.1671 31.3033L11.2223 31.3532L10.6188 31.421C10.0559 31.4801 9.92209 31.4761 9.56859 31.4455L9.33062 31.4168C8.83085 31.4563 8.25533 31.5018 7.94275 31.4277C7.84124 31.476 7.775 31.4922 7.79806 31.4995C7.94725 31.5707 8.20651 31.6311 8.56561 31.6783C8.65715 31.6894 8.72158 31.7062 8.82827 31.7161C9.17224 31.7717 9.25202 31.8576 9.0513 31.9562C8.95165 31.9999 8.80694 32.0446 8.6218 32.0889C8.89279 32.1504 9.25176 32.2013 9.6891 32.2404C10.0603 32.2706 10.3659 32.311 10.5973 32.3605C10.805 32.4105 11.1161 32.448 11.5127 32.471C11.7138 32.4808 11.8606 32.5001 11.9385 32.5269C11.9616 32.5997 11.9084 32.6775 11.78 32.7588C11.7558 32.7836 11.6871 32.8103 11.5792 32.8369C11.4714 32.8635 11.3273 32.8893 11.1583 32.9122C11.1583 32.9122 11.077 32.9296 11.0379 32.94C11.0053 33.0281 11.1272 33.1057 11.3956 33.1676C11.4396 33.1852 11.5295 33.1979 11.6558 33.2044C11.7821 33.2108 11.9399 33.2108 12.1123 33.2042C12.4765 33.1937 12.8166 33.1924 13.1688 33.1865C13.5483 33.1782 13.8826 33.1848 14.1365 33.2056C14.3903 33.2264 14.5545 33.2606 14.6116 33.3047C14.6153 33.3172 14.6264 33.3291 14.6448 33.3405C14.6555 33.3463 14.6613 33.3526 14.6622 33.3592L13.8534 33.5036L14.7684 33.561C14.8221 33.6189 14.3829 33.6537 14.1628 33.6966L14.2988 33.7206C14.474 33.7342 14.71 33.7082 14.9236 33.6932L15.1356 33.6764L15.1609 33.7037C15.2929 33.7408 15.7744 33.6991 15.9622 33.7263C16.15 33.7535 16.016 33.7842 15.7346 33.8137C15.5389 33.8357 15.3288 33.8532 15.1201 33.865C14.9114 33.8767 14.7095 33.8824 14.5296 33.8816C14.4221 33.8786 14.333 33.872 14.2676 33.862C13.8878 33.8196 13.4682 33.7831 13.012 33.7529C12.6623 33.7257 12.2243 33.7141 11.7288 33.719C11.5834 33.7169 11.4081 33.7234 11.2336 33.7372C11.0591 33.751 10.8967 33.7712 10.7747 33.7944V33.7944L10.5182 33.7982C10.5182 33.7982 10.3778 33.8221 10.3977 33.826C10.4954 33.8968 10.3819 33.9834 10.0741 34.0728V34.0728L10.3418 34.0809C10.7242 34.0726 10.4817 34.1265 10.5389 34.1531C10.8106 34.1481 11.1636 34.1256 11.2925 34.1593L11.4853 34.1569L11.4095 34.1629L11.318 34.1518L10.9583 34.2022C11.1288 34.2107 11.2522 34.221 11.4027 34.2256C11.4859 34.2295 11.5521 34.2365 11.5973 34.2462C11.6426 34.2558 11.666 34.2678 11.6661 34.2815C11.6656 34.3027 11.7105 34.3205 11.7963 34.3332C11.8821 34.3459 12.0061 34.3532 12.1563 34.3543C12.3356 34.3548 12.4382 34.3777 12.5433 34.3859L12.0866 34.5244C12.0866 34.5244 12.3138 34.5064 12.1901 34.5308L12.1743 34.5138L11.8976 34.5484C11.6983 34.5788 11.5588 34.5862 11.4411 34.5644C11.3233 34.5426 11.3502 34.5716 11.2937 34.5633C11.3142 34.5854 11.4424 34.6009 11.5522 34.6141C11.6793 34.6245 11.8226 34.6322 11.9799 34.637C11.6964 34.7344 11.6829 34.7373 12.0969 34.763C12.511 34.7888 12.3682 34.8275 12.7147 34.833C13.0612 34.8386 12.6672 34.9044 12.4353 34.9173C12.2633 34.9257 12.0881 34.9389 11.9214 34.9558C11.7547 34.9728 11.6007 34.9932 11.4699 35.0155L11.5395 35.0905C11.6414 35.0843 11.7436 35.0762 11.8424 35.0665C12.178 35.0254 12.4834 34.9866 12.782 35.0105L12.6398 35.0675L13.6821 35.0345C13.6551 35.0771 13.4962 35.1257 13.239 35.17V35.17C13.2777 35.1944 13.3015 35.22 13.3102 35.2467C13.3276 35.2654 13.4304 35.2536 13.4973 35.2556C13.736 35.2588 13.9319 35.2715 14.0678 35.2926C14.2036 35.3138 14.2753 35.3427 14.2764 35.3769C14.3033 35.4058 13.9364 35.4659 13.707 35.4639C13.1342 35.4697 12.5148 35.492 11.8822 35.5295C11.4966 35.5344 11.4422 35.4583 10.8077 35.5103C10.7951 35.5454 10.8763 35.5739 11.0392 35.5914C11.2021 35.6088 11.4377 35.6144 11.7104 35.6071C11.5553 35.6852 10.6964 35.7055 10.6584 35.7872C10.8723 35.7814 11.101 35.7678 11.3219 35.7478C11.5428 35.7278 11.7482 35.702 11.9179 35.673C11.9545 35.6658 12.0005 35.6592 12.0516 35.6538C12.1026 35.6484 12.1572 35.6443 12.2101 35.642C12.263 35.6396 12.3126 35.639 12.3543 35.6403C12.396 35.6416 12.4285 35.6447 12.4487 35.6493C12.3298 35.6788 12.1988 35.7129 12.0497 35.7448C11.9005 35.7767 11.8645 35.7905 11.7569 35.7972C10.9543 35.8607 10.5727 35.9749 9.87827 36.0499C9.69654 36.0643 9.67392 36.1099 9.8317 36.1048C9.98179 36.0996 10.1177 36.1003 10.2241 36.1067C10.3306 36.1132 10.4035 36.1251 10.4345 36.1412C10.551 36.16 10.696 36.175 10.866 36.1857C10.1538 36.303 9.30473 36.4066 8.39834 36.4868C8.22668 36.5027 8.04764 36.5123 7.88747 36.5144C7.38151 36.5145 6.84462 36.5238 6.2876 36.5421C6.09005 36.5471 5.9075 36.5466 5.74989 36.5407C5.23295 36.5267 4.82244 36.5574 4.44743 36.6437L3.82671 36.7805C3.84727 36.8026 3.95145 36.8273 4.03168 36.8612L3.54682 36.9342L-0.153291 36.766L-0.896065 36.9289L-1.96117 36.9198C-2.04281 36.9245 -2.12483 36.931 -2.20344 36.939C-2.41887 36.9871 -2.58731 37.0333 -2.82104 37.0792C-3.05477 37.1251 -3.47224 37.1307 -3.76338 37.1848C-4.05453 37.2388 -4.34612 37.24 -4.70643 37.2721C-4.74031 37.314 -4.70531 37.3516 -4.60361 37.3828C-4.5704 37.4186 -4.38731 37.4407 -4.35567 37.4747C-4.35916 37.5091 -4.29114 37.5384 -4.15773 37.5597C-4.02433 37.5811 -3.82977 37.594 -3.59172 37.5971C-2.9251 37.6704 -2.12121 37.7226 -1.20439 37.7522C-1.12386 37.7543 -1.05708 37.7593 -1.00821 37.7667C-0.95934 37.7742 -0.929428 37.784 -0.920291 37.7955C-0.92155 37.8289 -0.860425 37.8578 -0.741347 37.88C-0.622269 37.9022 -0.448241 37.9172 -0.232047 37.9239C-0.174468 37.9253 -0.131017 37.9295 -0.107089 37.936C-0.0250898 37.9402 0.0346858 37.9483 0.0663804 37.9594C0.098075 37.9705 0.100627 37.9843 0.0738532 37.9995C0.0470797 38.0146 -0.00813643 38.0306 -0.0864818 38.046C-0.164827 38.0613 -0.263663 38.0753 -0.3734 38.0868C-0.53257 38.1054 -0.695153 38.1231 -0.860498 38.14C-0.851007 38.1502 -0.686927 38.1518 -0.71089 38.1611C-0.775669 38.1904 -0.790657 38.218 -0.754728 38.2415C-0.718799 38.265 -0.632912 38.2838 -0.503855 38.2964L-1.38816 38.5345C-1.92492 38.5675 -2.45145 38.6234 -2.86782 38.6917C-2.86837 38.7029 -2.84442 38.7122 -2.79832 38.7189C-2.75223 38.7255 -2.68565 38.7291 -2.6052 38.7294C-2.38934 38.7343 -2.18544 38.7438 -1.95285 38.7492C-1.81068 38.7532 -1.69239 38.762 -1.60481 38.7752C-1.51724 38.7884 -1.46214 38.8056 -1.44273 38.8258L-1.96195 38.9144C-1.7956 38.936 -1.67218 38.9464 -1.56233 38.9596C-1.62457 38.9874 -1.73164 39.0162 -1.87522 39.0437C-2.0188 39.0713 -2.19505 39.0968 -2.39035 39.1183C-2.44271 39.1227 -2.49611 39.126 -2.54744 39.1278C-2.59877 39.1297 -2.64698 39.1301 -2.68917 39.1291C-3.09128 39.0987 -3.56165 39.1524 -4.01848 39.2031C-4.47531 39.2538 -4.72331 39.2844 -5.06056 39.3238L-5.70588 39.3291C-5.86919 39.3478 -6.01495 39.3698 -6.13145 39.3933C-6.24796 39.4168 -6.33195 39.4411 -6.37677 39.4644C-6.34197 39.5019 -6.03592 39.4814 -5.85351 39.4852C-5.42077 39.5086 -4.8518 39.5036 -4.24099 39.4711C-4.08954 39.4592 -3.93426 39.4688 -3.78689 39.47C-3.46897 39.4746 -3.16345 39.4822 -2.8717 39.4927C-2.67958 39.5025 -2.50003 39.5145 -2.33421 39.5288C-2.28992 39.5765 -2.98724 39.6134 -2.59147 39.6369C-2.72777 39.6477 -2.77883 39.6627 -2.8489 39.6573C-3.29786 39.6882 -3.74021 39.7036 -4.12464 39.7014C-4.86241 39.6949 -5.70014 39.7166 -6.56923 39.7648C-7.50734 39.8148 -8.40721 39.8358 -9.19462 39.8261C-9.49452 39.8255 -9.82974 39.8358 -10.1747 39.856C-10.5821 39.8841 -10.9866 39.9017 -11.3621 39.9078C-11.4864 39.908 -11.6249 39.9128 -11.7663 39.9218C-11.9077 39.9307 -12.048 39.9436 -12.1758 39.9593V39.9593C-12.1647 39.9713 -12.0429 39.9799 -12.0701 39.9857C-12.4586 40.0749 -12.6162 40.1678 -13.2143 40.259C-13.6232 40.2913 -14.0927 40.3284 -14.3601 40.2855C-14.6275 40.2427 -14.5316 40.2059 -13.9995 40.0962C-14.115 40.0946 -14.2541 40.0997 -14.3925 40.1106C-14.5309 40.1216 -14.6598 40.1376 -14.7567 40.156L-15.217 40.2381L-15.6317 40.3166C-15.5954 40.3557 -15.5669 40.3864 -15.5368 40.4188C-15.4894 40.4531 -15.5415 40.495 -15.6858 40.5384C-15.7729 40.5621 -15.8488 40.5858 -15.9126 40.6093C-16.1719 40.7033 -16.247 40.7922 -16.1294 40.866C-15.9042 40.972 -15.5906 41.0695 -15.1921 41.1575C-14.7713 41.2431 -14.541 41.351 -14.1943 41.4443C-14.0174 41.4867 -13.8026 41.5248 -13.5522 41.5581C-13.0771 41.632 -12.5565 41.7024 -12.0798 41.7781C-11.6032 41.8537 -11.065 41.9081 -10.5356 41.9705C-9.74739 42.0445 -8.89543 42.1084 -7.98442 42.1619C-7.42071 42.2087 -6.84185 42.2544 -6.3204 42.3083C-5.70453 42.369 -4.98103 42.4125 -4.16792 42.4379C-3.44975 42.4683 -2.8081 42.5133 -2.25525 42.572C-2.19727 42.5783 -2.15151 42.5864 -2.11922 42.596C-2.01968 42.6558 -1.74071 42.6979 -1.32496 42.716C-1.35022 42.7335 -1.38252 42.7513 -1.42171 42.7693C-1.47941 42.7908 -1.49143 42.8109 -1.45617 42.8271C-1.42091 42.8432 -1.34003 42.8546 -1.22399 42.8597C-0.891409 42.8746 -0.614991 42.8997 -0.407094 42.9341C-0.330724 42.9428 -0.283375 42.9553 -0.26905 42.9707C-0.254724 42.9862 -0.273848 43.004 -0.324843 43.0227C-0.369997 43.0419 -0.373322 43.0596 -0.334358 43.0735C-0.295394 43.0874 -0.21594 43.0968 -0.106297 43.1005C0.175209 43.1187 0.476619 43.1333 0.796015 43.1443C1.47567 43.1686 2.26618 43.1683 3.11986 43.1435C3.21072 43.1363 3.30225 43.1474 3.40827 43.139C4.01195 43.1112 4.57262 43.1069 5.02238 43.1266C5.54971 43.1343 6.10101 43.1327 6.65705 43.1363C7.46039 43.1339 8.20144 43.1485 8.85953 43.1798C9.61178 43.1496 10.0345 43.2021 10.6694 43.2031C11.2556 43.2085 11.8112 43.2214 12.331 43.2418C13.1688 43.2688 14.0036 43.2924 14.8295 43.324C15.6043 43.3391 16.3177 43.3679 16.9576 43.41C17.2028 43.429 17.6467 43.3994 17.8138 43.4392C17.9808 43.479 18.3178 43.4743 18.5902 43.4875L19.4496 43.5201C19.5974 43.5279 19.7599 43.5328 19.9346 43.5348C20.7336 43.5375 21.2869 43.5906 22.0286 43.6015L22.1043 43.5955C23.4211 43.6745 24.928 43.7179 26.5806 43.7244C27.546 43.7486 28.6016 43.7474 29.626 43.7652C29.8703 43.8007 30.4474 43.757 30.7539 43.7894C31.0604 43.8219 31.5608 43.8006 31.9559 43.8059C32.351 43.8112 32.7373 43.8246 33.1595 43.8241C33.5262 43.8243 33.8358 43.8388 34.0603 43.8663C34.5725 43.9118 35.1969 43.9385 35.9056 43.9453C36.8432 43.9571 37.7297 43.984 38.6833 43.9781C38.6697 44.0112 38.7282 44.0394 38.8528 44.0597C38.9774 44.0801 39.1636 44.0919 39.3924 44.0939C40.412 44.1065 41.3367 44.1395 42.3699 44.1492L42.6463 44.1493L45.7364 44.1683C46.5689 44.172 47.3711 44.1781 48.2203 44.1822C48.5383 44.1571 48.546 44.2004 48.7659 44.1921C48.8274 44.1708 48.9 44.1614 49.0083 44.173L49.032 44.1985L52.5585 44.2324C53.9393 44.2572 55.3917 44.2646 56.9034 44.2547C57.262 44.2572 57.5967 44.2656 57.9022 44.2799C58.1854 44.2851 58.4806 44.2874 58.7864 44.2868C59.1998 44.2804 59.6038 44.2771 59.9966 44.2771C61.0298 44.2868 62.1141 44.2816 63.2454 44.2744C64.3767 44.2673 65.2338 44.28 66.2408 44.279C66.9227 44.2781 67.6015 44.2738 68.3074 44.2638C68.6444 44.2591 69.0597 44.2335 69.4087 44.2242C69.7577 44.2149 69.8716 44.2151 69.9177 44.2297C70.0696 44.2707 70.4514 44.2442 70.7565 44.2402C71.3517 44.2334 71.4362 44.2194 71.5978 44.1134L70.8676 44.0797C70.6886 44.0688 70.4635 44.0669 70.2139 44.0741C69.9644 44.0814 69.6988 44.0975 69.4428 44.121C69.3421 44.1311 69.2368 44.139 69.1329 44.1444C69.0291 44.1498 68.9289 44.1525 68.838 44.1523C68.1011 44.1466 67.3746 44.1346 66.6665 44.1247L66.5629 44.1183L66.5564 44.0237C66.6501 44.0144 66.7472 44.0068 66.8441 44.001L70.3961 43.9396C71.2111 43.9246 72.0574 43.8906 72.8574 43.8767C73.6573 43.8629 74.0884 43.8544 74.7091 43.8401C74.971 43.8319 75.238 43.8212 75.5083 43.808C75.4926 43.7989 75.4837 43.7892 75.4814 43.779C75.4672 43.7637 75.4482 43.7432 75.563 43.7269C75.6883 43.7037 75.8557 43.684 76.0319 43.6715C76.1973 43.6633 76.3577 43.6587 76.5067 43.6578C77.2271 43.6498 78.0499 43.5999 78.7997 43.5186L79.0614 43.5729C80.1873 43.5424 81.3299 43.5124 82.506 43.4834C82.7414 43.4755 82.9886 43.4604 83.2288 43.4391C83.4863 43.4187 83.7232 43.3763 83.9942 43.353C84.262 43.3363 84.528 43.3232 84.7872 43.3141C84.717 43.3001 84.6244 43.289 84.5125 43.281C84.4023 43.2782 84.3221 43.2694 84.2834 43.2561C84.2447 43.2427 84.2494 43.2254 84.2971 43.2066C84.381 43.1744 84.4178 43.144 84.2354 43.1402C84.0669 43.1328 83.9463 43.1169 83.8879 43.0943C83.8295 43.0717 83.8357 43.0434 83.9057 43.0126C83.9364 42.9947 83.9581 42.9771 83.9706 42.96V42.96L84.0463 42.954C84.2961 42.8904 84.7949 42.8674 85.153 42.8153C85.322 42.8003 85.4969 42.7916 85.6503 42.7907C86.0463 42.7795 86.4319 42.7746 86.8415 42.7605C87.0371 42.754 87.2417 42.7422 87.4432 42.7257C87.731 42.703 87.7612 42.7006 87.9283 42.6179C87.6688 42.6194 87.4632 42.607 87.346 42.583C87.2289 42.5589 87.2075 42.5246 87.2855 42.4859C87.4996 42.4014 87.7256 42.3122 88.694 42.2521C88.3782 42.2492 88.0743 42.2433 87.7835 42.2345C87.6989 42.2326 87.6356 42.2264 87.602 42.2167C87.5684 42.207 87.5661 42.1943 87.5955 42.1802C87.6249 42.1662 87.6845 42.1515 87.7664 42.1381C87.8483 42.1247 87.9485 42.1132 88.0537 42.1053C88.5648 42.0574 89.098 42.0254 89.5934 42.0128C90.0109 42.0073 90.3877 42.0104 90.8753 42.0102L91.4508 41.9648C91.4413 41.9545 91.5258 41.9406 91.5043 41.9349C91.3581 41.8825 91.1968 41.8313 91.0307 41.7749C91.296 41.7445 91.5258 41.7078 91.6939 41.669C91.862 41.6301 91.9615 41.5908 91.9809 41.5554C91.9953 41.5447 91.9915 41.535 91.97 41.5269C91.9484 41.5188 91.9096 41.5126 91.8562 41.5086C91.7047 41.5017 91.5877 41.4887 91.5144 41.4704C91.441 41.4521 91.4132 41.4291 91.4331 41.4031L91.8806 41.3074C93.2281 41.2391 94.5514 41.1903 95.8259 41.1619L96.9764 41.1405C97.1152 41.1149 97.0723 41.1036 96.9416 41.103C96.811 41.1024 96.4437 41.1095 96.1871 41.1133C95.9656 41.1183 95.7688 41.115 95.6159 41.1037C95.463 41.0924 95.3592 41.0735 95.3144 41.0488L95.7007 40.9397C95.6817 40.9192 95.6549 40.8903 95.4453 40.8922C95.3022 40.8898 95.1967 40.8795 95.1459 40.863C95.0952 40.8464 95.102 40.8246 95.1655 40.801C95.1751 40.7839 95.1607 40.7683 95.1228 40.755C94.8129 40.7539 94.5046 40.7545 94.2234 40.7493C94.0925 40.7476 93.9819 40.7412 93.8992 40.7307C93.8165 40.7202 93.7636 40.7058 93.7442 40.6884C93.7341 40.6715 93.7588 40.6522 93.8164 40.6321C93.874 40.6119 93.9628 40.5916 94.0757 40.5727C94.5164 40.5492 94.9195 40.5489 95.1966 40.5718C95.2954 40.5898 95.454 40.5996 95.6517 40.5999C95.8494 40.6003 96.0768 40.5912 96.3039 40.5739C96.5639 40.5539 96.8235 40.5451 97.0358 40.5491C97.2481 40.5531 97.3992 40.5696 97.4621 40.5957C97.729 40.5856 97.9657 40.5778 98.1992 40.5667C98.4746 40.5526 98.7349 40.5485 98.9521 40.5547C99.2995 40.5591 99.6738 40.5565 100.067 40.5471C101.199 40.5234 102.333 40.5014 103.429 40.4916C103.719 40.4887 103.97 40.4963 104.257 40.4901C104.544 40.4839 104.77 40.5007 105.129 40.4669C105.197 40.4616 105.266 40.4582 105.33 40.457C105.394 40.4558 105.451 40.4567 105.496 40.4598C106.126 40.4865 106.865 40.4903 107.669 40.4709C108.77 40.4661 109.912 40.4527 111.014 40.4496C111.338 40.4523 111.643 40.4593 111.928 40.4707C112.144 40.4775 112.371 40.4822 112.607 40.4846C112.788 40.4868 112.961 40.4804 112.931 40.5176C112.9 40.5547 113.171 40.5315 113.327 40.5246C113.864 40.5066 114.412 40.4822 114.966 40.4517C115.512 40.4186 116.047 40.3993 116.539 40.395C116.895 40.3925 117.261 40.402 117.718 40.3512C117.701 40.3325 117.683 40.3138 117.584 40.2942C117.956 40.2404 118.381 40.1941 118.824 40.1591C119.266 40.1241 119.713 40.1015 120.128 40.0931L120.7 39.9913C120.841 39.9793 120.984 39.9706 121.122 39.9656C121.26 39.9607 121.39 39.9597 121.502 39.9626C121.589 39.964 121.696 39.9603 121.801 39.9519C121.907 39.9435 122.005 39.9312 122.078 39.9171C122.186 39.8991 122.319 39.8837 122.459 39.8726C122.599 39.8615 122.741 39.8553 122.865 39.8548C123.258 39.8438 123.678 39.8182 124.081 39.7807C124.185 39.7588 124.251 39.7361 124.269 39.7154C124.288 39.6948 124.258 39.6772 124.184 39.6647C124.065 39.6426 123.998 39.6145 123.988 39.582C123.977 39.5495 124.023 39.5134 124.123 39.4758C124.174 39.4527 124.191 39.4308 124.173 39.4115C124.155 39.3922 124.102 39.3758 124.018 39.3634C123.705 39.3059 123.789 39.2736 124.301 39.1783C124.385 39.1624 124.485 39.1475 124.596 39.1346C124.708 39.1217 124.827 39.1111 124.947 39.1034C125.229 39.0879 125.508 39.0763 125.777 39.069C125.928 39.057 126.084 39.0667 126.258 39.062C127.131 39.0388 127.258 39.0012 127.541 38.9204L127.747 38.8621C128.129 38.8148 128.546 38.7756 128.97 38.7472C129.393 38.7188 129.812 38.7019 130.195 38.6978C130.348 38.6975 130.523 38.6894 130.694 38.6748C131.251 38.6302 131.815 38.5993 132.349 38.5842C132.682 38.5757 133.041 38.5538 133.382 38.5209C133.724 38.4881 134.034 38.4458 134.275 38.3992C134.491 38.3571 134.774 38.3194 135.085 38.2913C135.448 38.2625 135.482 38.2288 135.279 38.2028C135.076 38.1768 134.736 38.1433 134.434 38.116C134.329 38.1067 134.264 38.0916 134.246 38.0723C134.228 38.0531 134.258 38.0305 134.333 38.007C134.381 37.9668 134.389 37.9287 134.358 37.8935C134.341 37.8789 134.352 37.8622 134.392 37.8444C134.431 37.8266 134.497 37.8083 134.585 37.7905C134.674 37.7728 134.782 37.7562 134.904 37.7417C135.025 37.7272 135.157 37.7152 135.289 37.7065C135.85 37.6622 136.395 37.6191 136.966 37.5868C137.206 37.5715 137.445 37.5526 137.678 37.5305C138.155 37.4759 138.666 37.4306 139.18 37.3972C139.424 37.3823 139.663 37.3562 139.844 37.3246C140.417 37.2395 140.944 37.15 141.417 37.0577C141.531 37.0291 141.68 37.0012 141.855 36.9757C142.03 36.9502 142.227 36.9278 142.434 36.9097C142.6 36.8965 142.736 36.8675 142.864 36.8482C142.958 36.8036 142.968 36.7623 142.893 36.7282C142.819 36.6941 142.663 36.6683 142.439 36.6533C142.228 36.6353 142.029 36.6144 141.846 36.5923C141.626 36.5745 141.363 36.5637 141.069 36.5605C140.72 36.5509 140.463 36.5235 140.329 36.4819C141.284 36.4065 142.191 36.2982 143.027 36.3235L143.663 36.255C143.637 36.2277 143.615 36.2039 143.595 36.1817C143.443 36.1414 143.396 36.0906 143.457 36.0336C143.507 36.006 143.503 35.9809 143.444 35.9608C143.385 35.9407 143.275 35.9263 143.123 35.9192C142.226 35.8457 141.188 35.7961 140.347 35.7127C140.083 35.697 139.774 35.6899 139.433 35.6916C139.103 35.6866 139.117 35.649 139.497 35.6025C139.71 35.5783 139.927 35.555 140.147 35.5328C141.119 35.5291 141.515 35.6404 142.624 35.6095L143.138 35.4628C143.277 35.4605 143.412 35.4596 143.542 35.4601L145.402 35.5197C145.557 35.5227 145.677 35.5329 145.75 35.5491C145.823 35.5654 145.844 35.587 145.812 35.6116C145.8 35.6417 145.825 35.6692 145.888 35.6933C145.929 35.7102 145.903 35.7326 145.816 35.7557C145.621 35.8077 145.872 35.8153 146.03 35.8284C146.07 35.8297 146.117 35.8295 146.167 35.828C146.218 35.8264 146.27 35.8235 146.322 35.8194C146.374 35.8153 146.425 35.8101 146.471 35.804C146.517 35.7979 146.558 35.7912 146.59 35.7841C146.869 35.7346 147.114 35.6824 147.388 35.6278C147.193 35.5756 147.422 35.4898 147.118 35.4425C147.084 35.4331 147.071 35.4216 147.078 35.4087C147.086 35.3959 147.115 35.3819 147.163 35.3677C147.287 35.3311 147.346 35.2955 147.334 35.2643C147.322 35.2331 147.24 35.2076 147.095 35.1902L147.078 35.1715C147.458 35.1085 147.358 35.0525 147.507 34.9859L147.873 34.9423C148.784 34.8374 148.785 34.8391 149.569 34.843C149.727 34.8031 149.526 34.797 149.376 34.7925L148.115 34.7477C147.291 34.7178 146.442 34.6971 145.521 34.6858C144.601 34.6744 143.574 34.6368 142.622 34.6096C142.574 34.6075 142.537 34.6033 142.515 34.5975C142.492 34.5916 142.485 34.5842 142.493 34.5759C142.531 34.5669 142.581 34.5583 142.638 34.5505C142.696 34.5428 142.76 34.5363 142.826 34.5313C143.129 34.5074 143.44 34.492 143.762 34.472L144.364 34.4372L144.549 34.3915C144.67 34.3637 144.752 34.3298 144.912 34.3098C145.044 34.2949 145.188 34.2836 145.327 34.277C145.467 34.2705 145.598 34.2689 145.707 34.2726C146.008 34.2817 146.28 34.2949 146.568 34.3069C146.855 34.3189 147.014 34.332 147.263 34.3379C147.77 34.3406 148.259 34.3476 148.729 34.3591C149.126 34.3862 149.492 34.4183 149.827 34.4552C150.035 34.4698 150.23 34.4873 150.587 34.4683C150.756 34.451 150.901 34.4284 150.998 34.4043C151.095 34.3803 151.136 34.3564 151.115 34.3369C151.096 34.3217 151.042 34.3096 150.958 34.3018C150.874 34.2941 150.762 34.2909 150.635 34.2926C150.277 34.2898 149.946 34.2803 149.649 34.2644C149.236 34.2356 148.733 34.2232 148.169 34.2279C147.977 34.2321 147.849 34.2166 147.682 34.2115C147.515 34.2065 147.373 34.1939 147.187 34.2032C146.607 34.227 146.329 34.1905 145.982 34.1667C145.865 34.1562 145.792 34.1392 145.772 34.1175C145.752 34.0959 145.785 34.0705 145.868 34.0441C146.029 33.9915 146.225 33.9386 146.453 33.8863C146.571 33.8606 146.722 33.8362 146.894 33.815C147.066 33.7938 147.255 33.7763 147.445 33.7641C147.559 33.7319 147.62 33.7002 147.622 33.6719C147.624 33.6437 147.568 33.6197 147.458 33.6022C147.177 33.5623 146.928 33.5216 146.298 33.5439C146.002 33.5525 145.724 33.5541 145.473 33.5488C144.919 33.5415 144.279 33.5575 143.615 33.5952C143.443 33.6048 143.274 33.6114 143.112 33.6147C141.964 33.6379 140.869 33.6495 139.771 33.6576C139.189 33.6615 138.603 33.6603 137.996 33.6718C136.572 33.6965 135.276 33.6838 133.902 33.6919C133.182 33.696 132.538 33.6793 132.003 33.6427C131.899 33.6304 131.809 33.6161 131.736 33.5998C132.09 33.5573 132.479 33.5235 132.866 33.5019C133.253 33.4803 133.625 33.4715 133.946 33.4764C134.122 33.4883 134.35 33.4905 134.604 33.4827C134.857 33.4748 135.128 33.4574 135.384 33.4322V33.4322L134.639 33.4179C134.145 33.4112 133.639 33.4092 133.159 33.3996C132.396 33.3831 131.689 33.3567 130.898 33.3461C130.26 33.3363 129.69 33.3112 129.204 33.2716C128.853 33.2427 128.452 33.2223 128.009 33.2106C127.694 33.2044 127.694 33.2044 127.493 33.1454C127.653 33.1072 127.859 33.1018 128.054 33.1011C129.219 33.077 130.328 33.0728 131.358 33.0885C131.878 33.0899 132.339 33.1061 132.719 33.1363C132.813 33.1491 133.051 33.1431 133.242 33.1389C133.841 33.1326 134.414 33.1344 134.954 33.1444C135.7 33.1609 136.531 33.157 137.414 33.1327C137.582 33.1031 137.389 33.1055 137.379 33.0953C136.695 33.0762 136.024 33.0543 135.327 33.0381C135.136 33.0324 134.932 33.0295 134.717 33.0296C133.916 33.0396 133.248 33.0119 132.807 32.9503C132.785 32.9264 132.495 32.9292 132.366 32.9138C132.303 32.9004 132.261 32.8846 132.242 32.867C132.428 32.823 132.639 32.8227 132.802 32.8227C133.274 32.8276 133.727 32.8369 134.161 32.8506C134.564 32.8636 135.01 32.867 135.487 32.8609C135.839 32.855 136.141 32.8641 136.496 32.8616C136.689 32.8564 136.888 32.848 137.09 32.8366C136.865 32.8059 136.559 32.787 136.194 32.7813C135.917 32.763 135.57 32.7575 135.526 32.7098C135.657 32.6757 135.802 32.6751 135.919 32.6787C136.163 32.6785 136.399 32.6807 136.624 32.6851C137.103 32.6948 137.622 32.6949 138.169 32.6855C138.457 32.682 138.731 32.683 138.985 32.6887C139.561 32.6962 140.113 32.7129 140.64 32.7205C141.72 32.7284 142.706 32.7566 143.744 32.7714C143.975 32.7751 144.182 32.788 144.486 32.7658C144.791 32.7435 144.804 32.7406 144.84 32.7268C144.925 32.7038 144.951 32.6814 144.912 32.6644C144.852 32.6486 144.734 32.6397 144.58 32.6395C143.652 32.6142 142.772 32.5788 141.946 32.5333C141.582 32.5242 141.263 32.5056 141 32.4782C140.792 32.4593 140.545 32.4468 140.267 32.4411C139.862 32.4274 139.441 32.4175 139.004 32.4111C138.8 32.4078 138.627 32.3976 138.495 32.3814C138.363 32.3652 138.274 32.3432 138.233 32.3166L138.769 32.2286C138.853 32.2245 138.937 32.2209 139.019 32.2179L143.467 32.2814L143.908 32.2831C144.391 32.2779 144.509 32.2649 144.967 32.1629C143.921 32.1389 143.1 32.0689 142.584 31.96C142.708 31.9483 142.835 31.9382 142.962 31.9301C143.797 31.9043 144.587 31.8975 145.301 31.9098C145.724 31.911 146.16 31.9077 146.598 31.906C146.47 31.8558 145.98 31.8708 145.66 31.8594C144.897 31.8417 144.222 31.8051 143.657 31.7508C143.463 31.7297 143.219 31.7161 142.937 31.7108C142.656 31.709 142.421 31.6962 142.252 31.6735C142.084 31.6508 141.987 31.6189 141.971 31.5806C141.945 31.5459 141.887 31.5137 141.801 31.4844C141.954 31.4428 142.199 31.403 142.488 31.3725C142.776 31.3419 143.09 31.3227 143.369 31.3184C143.966 31.3012 144.585 31.2732 145.21 31.235C145.522 31.2158 145.827 31.2047 146.107 31.2026C146.353 31.2009 146.634 31.187 146.905 31.1629C147.176 31.1389 147.423 31.106 147.609 31.0692C147.859 31.0239 148.093 30.978 148.327 30.9321C148.56 30.8862 148.832 30.8282 149.104 30.7719C149.345 30.7631 149.579 30.7574 149.804 30.755C149.979 30.757 150.183 30.7509 150.392 30.7373C150.601 30.7237 150.807 30.7031 150.984 30.6781V30.6781C150.88 30.6535 150.762 30.6317 150.638 30.6031C150.809 30.5654 150.932 30.5269 151.001 30.49C151.07 30.4531 151.084 30.4185 151.04 30.3885C151.015 30.3612 151.2 30.3155 151.264 30.2794C151.347 30.2483 151.362 30.2192 151.309 30.196C151.255 30.1728 151.135 30.1566 150.965 30.1495C150.753 30.1364 150.581 30.1166 150.455 30.0911C150.414 30.0844 150.393 30.0753 150.394 30.0646C150.395 30.0539 150.418 30.0419 150.462 30.0297C150.506 30.0175 150.568 30.0055 150.644 29.9949C150.719 29.9842 150.805 29.9752 150.894 29.9686C151.167 29.95 151.437 29.9379 151.69 29.9331C152.127 29.9242 152.544 29.9187 152.943 29.9164C153.384 29.913 153.875 29.8918 154.365 29.8551C154.805 29.8204 155.198 29.7893 155.413 29.723C155.628 29.6566 155.971 29.6588 156.235 29.6105C156.087 29.5669 155.823 29.5367 155.471 29.5228C155.24 29.5178 155.048 29.5048 154.906 29.4845C154.764 29.4643 154.676 29.4372 154.646 29.4051L155.448 29.2705C156.088 29.2071 156.442 29.2559 157.134 29.2305L156.421 29.1808C156.407 29.1759 156.402 29.1701 156.405 29.1637C156.475 29.0632 156.585 29.0417 157.313 28.986L157.722 28.9536L158.369 28.9153C158.473 28.8947 158.545 28.8732 158.577 28.853C158.61 28.8328 158.602 28.8145 158.555 28.8001C158.46 28.7758 158.431 28.7447 158.471 28.7098C158.534 28.6867 158.539 28.6653 158.486 28.6495C158.432 28.6337 158.324 28.6244 158.179 28.6232C158.064 28.6213 158.055 28.5946 157.992 28.5794C157.93 28.5586 157.823 28.5426 157.679 28.5325C157.535 28.5224 157.357 28.5185 157.158 28.5211C156.57 28.5232 156.018 28.5153 155.511 28.4977L155.601 28.4905C155.073 28.506 154.579 28.5079 154.144 28.4961C153.707 28.4812 153.147 28.4907 152.683 28.4817C152.306 28.4838 152.019 28.4632 151.882 28.4243C151.75 28.3872 151.271 28.3959 150.903 28.403C150.686 28.4076 150.476 28.4095 150.275 28.4088C150.005 28.4004 149.668 28.4083 149.32 28.4312C149.216 28.4383 149.113 28.442 149.021 28.442C148.136 28.4517 147.253 28.463 146.38 28.468C146.178 28.4651 145.942 28.4718 145.698 28.4871C145.596 28.4938 145.496 28.4966 145.413 28.4951C144.033 28.4798 142.476 28.5187 141.124 28.4977C140.96 28.4927 140.778 28.4917 140.584 28.4946C140.149 28.507 139.77 28.499 139.507 28.4719C139.364 28.4575 139.182 28.4496 138.971 28.4486C138.761 28.4476 138.526 28.4537 138.282 28.4663C137.877 28.4831 137.502 28.4849 137.198 28.4716C136.605 28.4593 135.981 28.4542 135.331 28.4564C135.132 28.4586 134.957 28.4538 134.819 28.4425C134.682 28.4312 134.586 28.4136 134.539 28.3911C134.698 28.3529 134.873 28.3482 135.038 28.3516C135.68 28.3429 136.321 28.3325 136.951 28.3284C137.515 28.3166 138.057 28.3131 138.567 28.3177C138.82 28.3229 139.137 28.311 139.447 28.2847C139.827 28.2514 140.218 28.2348 140.542 28.2384C140.782 28.2393 141.035 28.2364 141.298 28.2298C141.466 28.2219 141.638 28.2082 141.797 28.1903C141.861 28.1825 141.929 28.176 141.999 28.1711C142.069 28.1662 142.138 28.1631 142.203 28.1619C142.268 28.1608 142.326 28.1616 142.375 28.1644C142.423 28.1671 142.461 28.1718 142.485 28.178C142.728 28.2301 143.273 28.2035 143.739 28.1978C144.437 28.1096 144.957 28.1618 145.61 28.112C145.662 28.1087 145.712 28.1067 145.759 28.1062C145.806 28.1056 145.849 28.1065 145.883 28.1087C147.147 28.1387 148.619 28.1137 149.945 28.124C150.092 28.1256 150.261 28.1204 150.435 28.1091C151.572 28.0343 152.666 28.0131 153.501 28.0496C153.603 28.0529 153.719 28.053 153.843 28.05C154.414 28.0203 154.961 28.0084 155.437 28.0155C156.182 28.0132 156.899 28.015 157.657 28.0082C158.179 27.9984 158.637 28.0088 158.986 28.0384C158.997 28.0504 159.229 28.0375 159.406 28.0363C159.508 28.0062 159.597 27.9791 159.702 27.9525C159.796 27.9196 159.938 27.8863 160.116 27.8549C160.294 27.8234 160.506 27.7946 160.736 27.7703C161.13 27.7392 161.169 27.694 160.894 27.6774C160.183 27.6224 159.29 27.5999 158.28 27.6115C157.436 27.6125 156.576 27.6146 155.72 27.6201C155.22 27.6249 154.694 27.6354 154.208 27.6373C154.044 27.6413 153.875 27.6473 153.704 27.6551C153.494 27.6665 153.29 27.6727 153.103 27.6734C152.503 27.6638 151.834 27.6721 151.126 27.698C150.867 27.7036 150.619 27.7055 150.384 27.7036C149.829 27.6966 149.227 27.7018 148.594 27.719C148.2 27.7287 147.819 27.7337 147.454 27.7341C147.325 27.7352 147.219 27.7271 147.095 27.7332C146.001 27.7978 145.226 27.7511 144.241 27.776C143.763 27.7829 143.305 27.7829 142.876 27.776C142.038 27.7764 141.176 27.7834 140.294 27.7972C139.129 27.8199 138.049 27.812 136.936 27.8214C136.716 27.8233 136.504 27.823 136.301 27.8204C135.313 27.803 134.24 27.8067 133.108 27.8314C132.851 27.8349 132.621 27.8306 132.43 27.8185C132.24 27.8065 132.095 27.7871 132.003 27.7615C131.964 27.7439 131.989 27.7211 132.074 27.6974C132.213 27.6672 132.371 27.6376 132.544 27.609L138.844 27.5133C139.109 27.5083 139.367 27.5056 139.617 27.5053C140.353 27.5044 141.111 27.497 141.888 27.483C142.656 27.4698 143.39 27.4721 144.134 27.4682C144.353 27.4668 144.578 27.4637 144.808 27.4588C146.362 27.4197 147.877 27.3959 149.342 27.3874C149.959 27.3862 150.625 27.3683 151.254 27.3625C151.882 27.3567 152.742 27.3546 153.488 27.3523L155.796 27.3526C156.25 27.3515 156.693 27.3549 157.133 27.3567C157.668 27.2322 157.852 27.203 158.565 27.1484C158.809 27.1283 159.058 27.1163 159.281 27.1138C159.989 27.1236 160.878 27.0827 161.549 27.0881C161.954 27.0854 162.298 27.0992 162.546 27.1282C162.76 27.1509 163.006 27.1688 163.278 27.1818C164.025 27.0753 164.09 27.0061 163.529 26.9792C163.377 26.9729 163.167 26.9748 163.057 26.9616C162.994 26.9535 162.908 26.9489 162.806 26.9481C162.704 26.9473 162.588 26.9503 162.468 26.957C162.089 26.9744 161.734 26.9785 161.439 26.9689C161.16 26.9561 160.819 26.9566 160.448 26.9703C160.176 26.9919 159.936 26.9615 159.7 26.9527C159.465 26.9439 159.271 26.9281 158.903 26.9517C158.835 26.9564 158.769 26.9592 158.707 26.96C158.646 26.9607 158.592 26.9593 158.549 26.9559C158.154 26.9407 157.682 26.9423 157.172 26.9606C156.389 26.9786 155.655 26.9792 154.995 26.9626C154.6 26.948 154.263 26.9222 153.998 26.886C153.925 26.874 153.818 26.8667 153.685 26.865C153.021 26.8725 152.3 26.9009 151.568 26.9483C151.292 26.9672 151.017 26.9822 150.748 26.993C150.195 27.0168 149.66 27.0301 149.159 27.0326C148.431 27.033 147.674 27.0422 146.893 27.06C146.411 27.07 145.946 27.0736 145.505 27.071C145.051 27.0697 144.567 27.0773 144.063 27.0936C143.561 27.1068 143.12 27.0992 142.79 27.0716C142.682 27.0568 142.595 27.0391 142.53 27.019C143.264 26.9537 144.023 26.9205 144.655 26.9261C144.895 26.9218 145.094 26.9261 145.347 26.9007L145.354 26.9092C145.405 26.9147 145.481 26.916 145.568 26.9128C145.655 26.9097 145.747 26.9023 145.826 26.892V26.892C145.796 26.8597 145.768 26.829 145.747 26.8069C145.266 26.8108 144.799 26.8104 144.348 26.8059C143.968 26.7994 143.452 26.8566 143.124 26.8351C142.482 26.862 142.074 26.8248 141.498 26.8355C140.923 26.8463 140.289 26.8817 139.714 26.8924C139.212 26.8983 138.725 26.8996 138.255 26.8963C138.092 26.8916 137.905 26.8927 137.705 26.8995C137.423 26.9123 137.161 26.9145 136.949 26.9057C136.737 26.8969 136.583 26.8776 136.505 26.8499C136.578 26.824 136.677 26.7906 136.791 26.756C136.581 26.7275 136.262 26.7156 135.882 26.7218L135.344 26.7205C135.202 26.7212 135.093 26.7135 135.04 26.699C134.987 26.6844 134.994 26.6642 135.06 26.6424C136.08 26.5325 136.117 26.5204 136.866 26.5911L137.86 26.5582L137.843 26.5577ZM124.403 26.8594L124.478 26.8535L124.403 26.8594ZM0.573107 38.5459L0.590506 38.5646L0.571525 38.5442L0.404957 38.5573L0.393885 38.5454L0.573107 38.5459ZM24.7604 30.3344C24.9959 30.3139 25.2336 30.2951 25.4722 30.2781C25.5347 30.2755 25.5931 30.2749 25.6427 30.2764C25.6922 30.2779 25.7313 30.2814 25.7566 30.2867C25.7756 30.3072 25.6424 30.3213 25.5213 30.3309C25.3685 30.3438 25.2124 30.352 25.0691 30.3546C24.9258 30.3573 24.8005 30.3543 24.7062 30.346L24.5692 30.3385L24.7604 30.3344ZM146.041 35.3156C145.886 35.319 145.739 35.3196 145.604 35.3173C145.003 35.3007 144.428 35.2767 143.813 35.2614C143.036 35.2225 142.143 35.2067 141.168 35.2145C140.787 35.2183 140.465 35.2057 140.24 35.1781C140.105 35.1633 139.932 35.1547 139.729 35.1527L137.151 35.1078C136.992 35.0985 136.854 35.0854 136.741 35.0689C136.968 35.051 137.12 35.039 137.211 35.0318C137.399 35.0298 137.561 35.0353 137.681 35.0477C137.809 35.0687 138.026 35.0771 138.288 35.071C138.552 35.066 138.81 35.0633 139.06 35.063C139.533 35.064 140.008 35.0685 140.482 35.0712C140.667 35.1298 141.211 35.1032 141.677 35.0975L142.037 35.1001C143.214 35.1304 144.339 35.1722 145.405 35.2252C145.611 35.2341 145.788 35.2484 145.932 35.2676C145.986 35.2826 146.003 35.3012 145.982 35.3221L146.058 35.3161L146.041 35.3156ZM93.4822 40.9139C93.1967 40.9179 92.8993 40.9261 92.5946 40.9383C92.3598 40.9509 92.1307 40.9585 91.9165 40.9609C90.716 40.974 89.465 41.0043 88.1804 41.0514C88.0124 41.0585 87.851 41.062 87.7023 41.0618L86.6508 41.0498C86.3194 41.0431 86.3131 41.0363 86.5543 40.9459C86.7545 40.9284 86.9569 40.9124 87.1601 40.898C87.2812 40.8885 87.4781 40.8729 87.5242 40.8875C87.8051 40.9275 88.3176 40.9016 88.7486 40.8931C89.9963 40.8713 91.2831 40.8391 92.5428 40.8126C92.8092 40.8062 93.0672 40.8029 93.3141 40.8029C93.4673 40.8015 93.6071 40.8041 93.7275 40.8104C93.7627 40.8111 93.7921 40.813 93.8139 40.816C93.8357 40.819 93.8493 40.823 93.8538 40.8279C93.8583 40.8327 93.8535 40.8382 93.8399 40.844C93.8264 40.8498 93.8042 40.8558 93.775 40.8615C93.6719 40.8816 93.5528 40.9009 93.4216 40.9187L93.4822 40.9139ZM84.3421 27.799L83.1129 27.7883C82.9655 27.7871 82.8405 27.7751 82.6827 27.7802C81.8411 27.7966 81.0619 27.792 80.3781 27.7667C80.1453 27.7564 79.8729 27.7544 79.5759 27.7607C78.6666 27.7793 77.8088 27.7801 77.0258 27.763C76.5197 27.7595 76.0461 27.748 75.612 27.7285C75.5785 27.7239 75.5577 27.7178 75.5509 27.7104C75.544 27.7031 75.5514 27.6947 75.5724 27.6859C75.5779 27.6803 75.5928 27.6743 75.616 27.6683C75.6393 27.6623 75.6704 27.6564 75.7071 27.6511C75.7439 27.6457 75.7854 27.641 75.8289 27.6374C75.8725 27.6337 75.9169 27.6311 75.9592 27.6297C76.5077 27.6033 77.0283 27.5941 77.4786 27.6029C77.8961 27.6133 78.3456 27.6164 78.8201 27.612C79.2742 27.6109 79.5823 27.645 80.1433 27.6189C80.3806 27.6104 80.5899 27.6132 80.736 27.6269C81.0299 27.6498 81.44 27.651 81.8935 27.6305C82.1648 27.6202 82.4241 27.6157 82.6616 27.6174C83.2375 27.6248 83.7879 27.6399 84.3215 27.6543C84.4897 27.6577 84.6699 27.6582 84.8593 27.6557L87.5314 27.6273C88.1736 27.6186 88.8142 27.6082 89.4444 27.6041C89.9598 27.5952 90.4394 27.598 90.8663 27.6124C91.3216 27.6275 91.818 27.6337 92.3464 27.6307C93.1669 27.639 93.9827 27.6421 94.8757 27.641C95.4453 27.6417 96.0285 27.6395 96.6236 27.6327C96.9247 27.6239 97.1803 27.6311 97.3413 27.6527C97.4391 27.6706 97.6695 27.6561 97.8607 27.6519C98.8807 27.612 99.8372 27.6025 100.664 27.6242C100.769 27.6277 100.885 27.629 101.008 27.628C101.804 27.6272 102.629 27.6224 103.393 27.6223C103.594 27.624 103.783 27.6287 103.958 27.6362C103.94 27.6484 103.886 27.6617 103.809 27.6732C103.732 27.6847 103.637 27.6937 103.545 27.6981C102.822 27.7323 102.124 27.7504 101.481 27.7515C100.41 27.7472 99.2878 27.757 98.1267 27.7808C97.2257 27.8048 96.4042 27.7998 95.7233 27.766C95.191 27.7408 94.4986 27.7503 93.7649 27.7928C93.451 27.8131 93.1463 27.8212 92.8925 27.8161C92.6482 27.8093 92.3678 27.8109 92.0679 27.8209C91.4355 27.8399 90.8273 27.8487 90.2553 27.8472C89.6961 27.8402 89.1744 27.8211 88.6001 27.8153C88.0257 27.8095 87.151 27.8128 86.4428 27.803C85.7347 27.7931 85.0344 27.7918 84.3421 27.799ZM135.274 26.8028C135.209 26.8554 134.98 26.8882 134.733 26.9023C133.881 26.9646 133.039 26.9911 132.348 26.9774C131.975 26.9582 131.477 26.9656 130.953 26.9981C130.342 27.0318 129.772 27.0374 129.342 27.0139C129.236 27.0098 129.156 27.0011 129.107 26.9886C129.097 26.9783 129.08 26.9596 129.077 26.9562C129.122 26.9476 129.177 26.9396 129.239 26.9328C129.3 26.9261 129.366 26.9207 129.431 26.9173L132.252 26.857L132.744 26.8437C133.642 26.809 134.498 26.7951 135.274 26.8028V26.8028ZM129.725 27.6363C129.284 27.7223 129.283 27.7206 129.057 27.7402C127.969 27.8219 126.881 27.8659 125.924 27.8672C125.711 27.8669 125.53 27.8586 125.397 27.843C125.329 27.8409 125.285 27.8341 125.276 27.8242C125.267 27.8143 125.293 27.8021 125.348 27.7902L125.699 27.7296C126.334 27.7034 126.961 27.6825 127.575 27.6672C128.29 27.6491 128.923 27.6484 129.664 27.6411L129.725 27.6363ZM93.535 40.5331C93.1247 40.6515 93.1231 40.6498 92.4362 40.6803C91.9575 40.7019 91.4932 40.7146 91.0569 40.718C90.524 40.7217 89.9774 40.7284 89.446 40.7338C89.3162 40.7376 89.2062 40.7345 89.1374 40.725C89.0686 40.7156 89.0458 40.7006 89.0735 40.6828C89.1432 40.6636 89.2523 40.6449 89.383 40.6299C89.5137 40.615 89.6584 40.6045 89.7935 40.6003L90.0835 40.5975C90.4356 40.5916 90.8013 40.5828 91.1415 40.5815C91.3623 40.5864 91.618 40.5826 91.8887 40.5704C92.1594 40.5582 92.4377 40.538 92.7019 40.5112L93.535 40.5331ZM127.534 26.9575C127.424 26.978 127.3 26.9976 127.165 27.0159C126.643 27.0664 126.09 27.0952 125.614 27.0964C125.39 27.0995 125.184 27.0884 124.956 27.1046C124.545 27.1263 124.148 27.1379 123.784 27.1387C123.784 27.1387 123.682 27.1339 123.649 27.1329L123.579 27.058C123.751 27.0406 123.931 27.0264 124.109 27.0161C124.709 26.9962 125.297 26.9825 125.885 26.9672C126.472 26.9519 126.677 26.9448 127.061 26.9382C127.232 26.9419 127.39 26.9483 127.534 26.9575ZM140.51 36.2738L139.726 36.4272C139.472 36.4405 139.235 36.4429 139.051 36.4341C138.867 36.4252 138.745 36.4055 138.705 36.3781C138.64 36.3652 138.634 36.3462 138.687 36.325C138.74 36.3037 138.848 36.2819 138.989 36.2642C139.125 36.2431 139.28 36.2243 139.445 36.2088C139.609 36.1932 139.78 36.1814 139.946 36.174L140.51 36.2738ZM133.981 35.5101C134.494 35.4841 134.985 35.4735 135.415 35.479C135.687 35.4942 136.054 35.4894 136.443 35.4654C137.15 35.4177 137.831 35.4045 138.343 35.4286C138.343 35.4286 138.362 35.449 138.449 35.455C138.536 35.4609 138.192 35.4753 138.116 35.4813C137.561 35.4959 137.002 35.5072 136.519 35.5124C136.219 35.5122 135.902 35.517 135.574 35.5268C135.121 35.542 134.692 35.5469 134.303 35.5414C134.303 35.5414 134.152 35.5368 133.983 35.5118L133.981 35.5101ZM79.2071 27.5211C79.4521 27.4922 79.7177 27.4687 79.9841 27.4524C80.2505 27.4361 80.5107 27.4274 80.7453 27.4269C80.9249 27.4254 81.0702 27.4331 81.1583 27.4486C81.2463 27.4642 81.2721 27.4868 81.2315 27.5128C81.0497 27.5272 80.8074 27.5463 80.6711 27.5571C80.1987 27.5561 79.7957 27.5422 79.2071 27.5211ZM33.3494 29.9554C33.5459 29.9321 33.7624 29.9143 33.9742 29.904C34.186 29.8938 34.3845 29.8914 34.5471 29.8973C34.6307 29.8998 34.574 29.9262 34.5882 29.9415C34.5975 29.945 34.5974 29.9493 34.5879 29.9541C34.5784 29.9588 34.5599 29.9637 34.5343 29.9683C34.5086 29.973 34.4769 29.9772 34.4423 29.9804C34.4078 29.9837 34.3717 29.9859 34.3378 29.9869C34.1245 29.9969 33.9232 29.9999 33.7519 29.9956C33.5805 29.9913 33.4444 29.9798 33.3557 29.9622L33.3494 29.9554ZM30.2768 30.2878C30.3072 30.2741 30.3719 30.2598 30.4591 30.2475C30.5462 30.2352 30.65 30.2258 30.7513 30.221C30.9303 30.2204 31.093 30.2242 31.2332 30.2323C31.3853 30.2386 31.2758 30.2783 31.0702 30.3019C30.983 30.3113 30.8899 30.3187 30.7983 30.3234C30.7067 30.3281 30.619 30.33 30.5423 30.329C30.4656 30.328 30.4019 30.324 30.3564 30.3174C30.3109 30.3109 30.2847 30.3019 30.28 30.2912L30.2768 30.2878ZM119.557 27.1035C120.016 27.0544 120.369 27.0668 120.757 27.0471C121.145 27.0274 121.24 27.0253 121.188 27.0568C121.136 27.0883 120.87 27.082 120.704 27.0951C120.479 27.1126 120.252 27.1226 120.05 27.1241C119.847 27.1256 119.677 27.1184 119.557 27.1035V27.1035ZM24.0345 35.3991C24.2773 35.3881 24.5151 35.3803 24.7445 35.3759C24.7746 35.3804 24.7935 35.3864 24.8001 35.3934C24.8066 35.4004 24.8006 35.4084 24.7824 35.4167C24.7824 35.4167 24.6269 35.4418 24.5361 35.449C24.2013 35.4736 24.1848 35.4384 24.0345 35.3991V35.3991ZM-10.283 39.967C-10.4473 40.0001 -10.524 40.0226 -10.6555 40.0384C-10.7159 40.044 -10.7784 40.048 -10.8383 40.0502C-10.8982 40.0524 -10.9539 40.0527 -11.0014 40.0512C-11.0592 40.0416 -11.0727 40.027 -11.0393 40.0103C-11.0393 40.0103 -10.8719 39.9806 -10.8081 39.9792C-10.6263 39.9722 -10.45 39.9681 -10.283 39.967V39.967ZM127.36 26.8231C127.708 26.7956 128.042 26.7693 128.283 26.8014C127.73 26.836 127.73 26.836 127.36 26.8231ZM121.718 27.1374C122.07 27.0785 122.277 27.0732 122.445 27.08C122.481 27.0817 122.505 27.0855 122.513 27.0908C122.521 27.0961 122.513 27.1026 122.49 27.1094C122.467 27.1162 122.43 27.1228 122.385 27.1284C122.34 27.1339 122.29 27.138 122.241 27.14C122.058 27.1417 121.883 27.1408 121.718 27.1374V27.1374ZM103.616 27.1623C103.608 27.1538 103.599 27.1436 103.689 27.1364C103.713 27.1327 103.741 27.1296 103.77 27.1273C103.8 27.125 103.829 27.1236 103.856 27.1232C103.856 27.1232 103.865 27.1334 103.872 27.1403L103.616 27.1623ZM91.045 41.3003L91.2473 41.3081L91.1565 41.3153L90.9166 41.3196L91.045 41.3003ZM19.8144 30.1549C19.8901 30.1489 19.9659 30.1429 19.9769 30.1549C19.9929 30.1567 20.0028 30.1594 20.0058 30.1626C20.0089 30.1659 20.0049 30.1696 19.9943 30.1736C19.9943 30.1736 19.8883 30.182 19.8429 30.1856L19.8144 30.1549ZM31.6075 30.2503C31.6573 30.2496 31.7022 30.2504 31.7397 30.2526C31.7397 30.2526 31.7492 30.2628 31.7492 30.2628L31.5977 30.2748L31.6075 30.2503ZM134.381 32.6851C134.44 32.6789 134.502 32.674 134.563 32.6707L134.639 32.6647C134.639 32.6647 134.557 32.6821 134.512 32.6857C134.466 32.6893 134.43 32.6849 134.381 32.6851Z" fill="#016A70"/>
</g>
<path d="M37.705 2.6158C37.2108 2.74172 37.0263 2.98987 37.0197 3.51578V3.80467H33.7975H30.5819L30.3644 3.88615C29.9164 4.06022 29.7385 4.30466 29.8505 4.59724C29.923 4.79353 30.2788 5.01205 30.6214 5.0639C30.9707 5.11945 45.3684 5.11575 45.7506 5.0602C46.3107 4.97872 46.7061 4.64909 46.6006 4.34169C46.5479 4.17132 46.3305 3.99355 46.0537 3.88985L45.8297 3.80467H42.6141H39.3919V3.49726C39.3919 2.96765 39.1942 2.73061 38.6539 2.60099C38.331 2.52691 38.0345 2.53062 37.705 2.6158Z" fill="#016A70"/>
<path d="M26.2329 6.17886C25.9232 6.23071 25.5871 6.43441 25.5015 6.61959C25.4422 6.74922 25.4751 6.94922 25.6596 7.7455C25.7782 8.27512 25.8968 8.7677 25.9166 8.83066L25.9562 8.95288H27.1027C28.1768 8.95288 28.2558 8.94918 28.2558 8.88622C28.2558 8.81585 28.0252 7.77883 27.9527 7.55291L27.9198 7.43439H38.2058C43.8595 7.43439 48.4852 7.4455 48.4852 7.46032C48.4852 7.47884 48.4127 7.79735 48.3205 8.17141C48.2282 8.54548 48.1557 8.8714 48.1557 8.90103C48.1557 8.94177 48.3666 8.95288 49.3089 8.95288C50.4488 8.95288 50.462 8.95288 50.4884 8.8677C50.5081 8.82325 50.6267 8.33067 50.7585 7.77883C50.9562 6.927 50.9826 6.74552 50.9167 6.61219C50.831 6.4233 50.4884 6.23071 50.1457 6.17516C49.8294 6.12701 26.536 6.13071 26.2329 6.17886Z" fill="#016A70"/>
<path d="M28.7827 20.9636C28.7827 21.0673 29.244 22.9525 29.2901 23.0155C29.3758 23.1562 29.5932 23.2895 29.8436 23.3599C30.094 23.434 30.2258 23.434 38.2912 23.4266L46.4884 23.4154L46.7256 23.3117C46.8574 23.2562 47.0155 23.1599 47.0682 23.1006C47.1539 23.0117 47.6283 21.2044 47.6283 20.9785C47.6283 20.9229 47.5295 20.9155 46.4818 20.9155C45.3484 20.9155 45.3352 20.9155 45.3023 20.997C45.2825 21.0451 45.2166 21.3192 45.1507 21.6118L45.0321 22.1377L38.2121 22.1303L31.3855 22.1192L31.2405 21.5266C31.1615 21.2007 31.0956 20.9303 31.0956 20.9229C31.089 20.9192 30.5684 20.9155 29.9359 20.9155C29.0133 20.9155 28.7827 20.9266 28.7827 20.9636Z" fill="#016A70"/>
<path d="M35.5878 9.18835C35.0512 9.32249 34.8429 9.46303 34.223 10.1018C33.7958 10.5426 33.6656 10.6959 33.6917 10.7534C33.7125 10.8077 34.1553 11.0025 35.369 11.4912C36.7859 12.0598 37.0359 12.146 37.1297 12.1204C37.1974 12.1013 37.4683 11.8266 37.8381 11.3986C38.1663 11.0185 38.458 10.7119 38.4788 10.7183C38.5205 10.7247 39.8176 12.2354 39.8123 12.2737C39.8123 12.2833 39.5415 12.3887 39.2133 12.5133C38.5517 12.7528 38.4215 12.8359 38.5153 12.9413C38.5465 12.9796 38.6247 13.0148 38.6872 13.0211C39.0206 13.0659 42.9638 13.3278 43.0472 13.3118C43.0993 13.3022 43.2035 13.2128 43.2816 13.1106C44.4589 11.5998 45.235 10.5586 45.235 10.4979C45.235 10.4468 45.1933 10.4085 45.11 10.3861C45.0006 10.3542 44.9016 10.3765 44.3234 10.565C43.7973 10.7374 43.6514 10.7726 43.615 10.7374C43.5889 10.7119 43.3285 10.4372 43.0368 10.1242C42.6148 9.67383 42.4429 9.51733 42.2085 9.38318C41.7137 9.10211 41.8231 9.11169 38.6507 9.11169H35.8847L35.5878 9.18835ZM37.8121 9.86867C37.9996 10.1082 38.1506 10.3222 38.1506 10.3478C38.1506 10.3893 37.0411 11.6573 36.963 11.7052C36.9317 11.7244 34.4886 10.7694 34.3324 10.6799C34.2959 10.6576 35.0252 9.86867 35.1971 9.75049C35.5513 9.49816 35.8795 9.43428 36.7806 9.43109H37.4735L37.8121 9.86867ZM41.448 9.48219C41.8647 9.56843 42.0627 9.71216 42.7086 10.4212C43.042 10.7822 43.3597 11.1047 43.417 11.1399C43.516 11.2038 43.5212 11.2038 43.9432 11.0696C44.1828 10.9961 44.3807 10.9419 44.3911 10.9482C44.4068 10.9578 42.9482 12.871 42.844 12.97C42.8128 13.002 42.495 12.986 41.2865 12.8966C40.4479 12.8359 39.7394 12.7848 39.7082 12.7848C39.5936 12.7848 39.6977 12.7177 40.052 12.5708C40.2499 12.4846 40.4218 12.3951 40.4322 12.3664C40.4426 12.3376 39.9165 11.6829 39.2706 10.9067C38.6247 10.1338 38.0986 9.48539 38.0986 9.46622C38.0986 9.44067 38.557 9.43109 39.6509 9.43109C40.9323 9.43109 41.2501 9.44067 41.448 9.48219Z" fill="#016A70"/>
<path d="M34.0617 12.009C33.9471 12.0154 32.9573 12.057 31.8582 12.0985C30.5247 12.1496 29.8371 12.1879 29.785 12.2135C29.7381 12.2358 29.7121 12.2933 29.7225 12.3508C29.7381 12.437 29.8163 12.4754 30.4153 12.7149C30.7904 12.8618 31.1237 12.9928 31.1602 13.0056C31.2175 13.0247 31.1029 13.194 30.681 13.737C30.3788 14.1267 30.1028 14.5195 30.0715 14.6122C29.9986 14.8198 30.0403 15.1232 30.1757 15.3276C30.358 15.6055 32.8167 18.2597 33.0355 18.4098C33.2803 18.5791 33.7804 18.742 34.1867 18.7899C34.3378 18.8059 34.7441 18.8218 35.0827 18.8218C35.9942 18.8218 35.9109 18.9688 35.9109 17.3845C35.9109 16.1165 35.9057 16.0718 35.8067 16.0111C35.7077 15.9504 35.6348 15.9472 34.6086 15.9472C33.9471 15.9472 33.5147 15.9345 33.5147 15.9153C33.5147 15.8578 34.8847 14.3822 34.942 14.3822C34.9733 14.3822 35.265 14.4461 35.5931 14.5259C36.1505 14.6601 36.1974 14.6665 36.312 14.6217C36.3745 14.593 36.4318 14.5419 36.4318 14.5068C36.4318 14.4109 34.7232 12.0761 34.619 12.025C34.5357 11.9867 34.4784 11.9867 34.0617 12.009ZM35.0045 13.2451C35.3587 13.737 35.6452 14.149 35.64 14.1618C35.6296 14.1778 35.4629 14.1458 35.2598 14.0915C34.7909 13.9702 34.6868 13.9734 34.5565 14.1011C34.4992 14.1586 33.9314 14.7846 33.2907 15.4905C32.6552 16.1996 32.1187 16.7777 32.1031 16.7777C32.0874 16.7777 31.754 16.4263 31.3634 15.9983C30.5976 15.1583 30.5195 15.021 30.6028 14.708C30.6237 14.6217 30.8945 14.2321 31.2488 13.7785C31.6603 13.2515 31.8478 12.98 31.827 12.9321C31.8113 12.8906 31.6134 12.7916 31.3165 12.6766C31.0508 12.5712 30.8633 12.4818 30.8945 12.4754C30.9987 12.453 33.7179 12.3444 34.0513 12.3508L34.3534 12.354L35.0045 13.2451ZM35.39 17.3845V18.4705H34.7493C34.1711 18.4705 34.0825 18.4641 33.8481 18.3907C33.7022 18.3459 33.5251 18.2693 33.447 18.2214C33.2491 18.0936 32.4156 17.1865 32.4364 17.1258C32.4469 17.0971 32.6292 16.9022 32.8323 16.6883L33.2074 16.2986H34.2961H35.39V17.3845Z" fill="#016A70"/>
<path d="M43.4119 13.5673C41.9429 14.1167 41.6668 14.2285 41.6512 14.2956C41.6408 14.3499 41.8231 14.5926 42.2086 15.027C42.5263 15.3847 42.7972 15.7041 42.818 15.7329C42.8493 15.784 42.7451 15.7872 41.521 15.7872H40.1927L40.1718 15.3719C40.1562 15.0046 40.1458 14.9535 40.052 14.912C39.9947 14.8833 39.9114 14.8641 39.8697 14.8705C39.802 14.8769 37.062 16.7549 36.864 16.9274C36.8172 16.9721 36.7963 17.0296 36.8172 17.0711C36.8328 17.1127 37.4996 17.6748 38.2965 18.3264C39.7707 19.5337 39.8593 19.5912 40.0572 19.4922C40.1093 19.4635 40.1301 19.374 40.1301 19.1377V18.8215H41.198C42.3023 18.8215 42.6722 18.7927 43.016 18.6873C43.4379 18.5564 43.6619 18.3647 44.6308 17.3011C45.1465 16.7422 45.7508 16.0906 45.98 15.8542C46.2092 15.6211 46.4488 15.3528 46.5165 15.2601C46.6728 15.0525 46.7249 14.7395 46.6467 14.5128C46.6155 14.4201 46.3342 14.0209 46.0216 13.628C45.4747 12.9445 45.4434 12.9126 45.3028 12.9158C45.209 12.9158 44.5527 13.1425 43.4119 13.5673ZM45.6414 13.858C45.881 14.1678 46.105 14.4968 46.1362 14.5926C46.2248 14.8513 46.1362 15.0525 45.756 15.4518L45.433 15.7872L44.4433 15.7808L43.4483 15.7712L42.8597 15.1004C42.5315 14.7299 42.2659 14.4137 42.2659 14.3978C42.2711 14.369 45.11 13.2958 45.183 13.2958C45.1986 13.2958 45.4017 13.5482 45.6414 13.858ZM39.7082 16.0555C39.7707 16.1002 40.0312 16.1066 42.4274 16.1066C43.8859 16.1066 45.0788 16.1193 45.0788 16.1353C45.0788 16.1577 43.4952 17.8952 43.2452 18.1443C43.1879 18.2018 43.0316 18.2944 42.9014 18.3519L42.6566 18.4541L41.2501 18.4637C39.9009 18.4733 39.8384 18.4765 39.729 18.5404C39.6509 18.5851 39.6092 18.6458 39.6092 18.7161C39.6092 18.7735 39.5936 18.8215 39.5728 18.8183C39.5051 18.8151 37.4475 17.0967 37.4475 17.0456C37.4475 17.02 37.9267 16.6623 38.5153 16.2471L39.5832 15.4933L39.6092 15.7488C39.6249 15.8926 39.6665 16.0235 39.7082 16.0555Z" fill="#016A70"/>
</svg>
